<svg xmlns="http://www.w3.org/2000/svg" xmlns:xlink="http://www.w3.org/1999/xlink" width="144" height="25.161" viewBox="0 0 144 25.161">
  <defs>
    <clipPath id="clip-path">
      <rect id="Rectangle_14" data-name="Rectangle 14" width="144" height="25.161" fill="none"/>
    </clipPath>
  </defs>
  <g id="Main_Logo_-_White" data-name="Main Logo - White" transform="translate(72 12.581)">
    <g id="Group_12" data-name="Group 12" transform="translate(-72 -12.581)">
      <path id="Path_65" data-name="Path 65" d="M58.778,0,55.8,3.755l2.978,3.626L55.8,11.137l2.978,3.755,5.957-7.511Z" transform="translate(16.459)" fill="#fff"/>
      <path id="Path_66" data-name="Path 66" d="M54.886,0,48.8,7.381l6.086,7.511,2.978-3.755L54.757,7.381l3.108-3.626Z" transform="translate(14.394)" fill="#fff"/>
      <g id="Group_11" data-name="Group 11" clip-path="url(#clip-path)">
        <path id="Path_67" data-name="Path 67" d="M8.676,4.178a2.849,2.849,0,0,1-1.813,2.59,2.849,2.849,0,0,1,2.46,2.849c0,1.942-1.683,3.108-4.144,3.108H0V1.2H4.921c2.331,0,3.755,1.165,3.755,2.849m-1.295.129c0-1.165-.906-1.942-2.59-1.942h-3.5V6.38H4.662c1.554,0,2.59-.647,2.59-2.072M7.9,9.488q0-1.942-3.108-1.942h-3.5v4.144H5.18c1.683,0,2.849-.777,2.849-2.072" transform="translate(0 0.354)" fill="#fff"/>
        <path id="Path_68" data-name="Path 68" d="M18.983,7.934c0,3.367-1.942,5.05-4.791,5.05S9.4,11.171,9.4,7.934V1.2h1.295V7.934c0,2.46,1.295,3.885,3.5,3.885s3.5-1.295,3.5-3.755V1.2h1.295Z" transform="translate(2.773 0.354)" fill="#fff"/>
        <path id="Path_69" data-name="Path 69" d="M27.4,12.855,24.032,8.322H20.795v4.532H19.5V1.2h4.921c2.59,0,4.144,1.424,4.144,3.5a3.367,3.367,0,0,1-3.108,3.367l3.5,4.662ZM24.291,2.495h-3.5V7.157h3.5c1.683,0,2.978-.906,2.978-2.331s-1.036-2.331-2.978-2.331" transform="translate(5.752 0.354)" fill="#fff"/>
        <path id="Path_70" data-name="Path 70" d="M37.547,1.2h1.165V12.855H37.676L30.295,3.4v9.453H29V1.2h1.165l7.381,9.324Z" transform="translate(8.554 0.354)" fill="#fff"/>
        <path id="Path_71" data-name="Path 71" d="M43.691,6.41c2.59.518,3.755,1.554,3.755,3.237s-1.683,3.237-3.885,3.237A6.734,6.734,0,0,1,38.9,11.071l.777-.906a5.439,5.439,0,0,0,4.014,1.683c1.554,0,2.59-.777,2.59-1.942S45.5,8.093,43.044,7.575s-3.885-1.424-3.885-3.367S40.713,1.1,42.914,1.1a6.086,6.086,0,0,1,4.014,1.424l-.777,1.036a5.05,5.05,0,0,0-3.367-1.295c-1.554,0-2.46.777-2.46,1.942s.647,1.683,3.108,2.2" transform="translate(11.474 0.324)" fill="#fff"/>
        <path id="Path_72" data-name="Path 72" d="M70.591,6.41c2.59.518,3.755,1.554,3.755,3.237s-1.683,3.237-3.885,3.237A6.734,6.734,0,0,1,65.8,11.071l.777-.906a5.439,5.439,0,0,0,4.014,1.683c1.554,0,2.59-.777,2.59-1.942S72.4,8.093,69.944,7.575s-3.885-1.424-3.885-3.237S67.742,1.1,69.944,1.1a6.086,6.086,0,0,1,4.014,1.424l-.777,1.036a5.05,5.05,0,0,0-3.367-1.295,2.232,2.232,0,0,0-2.46,1.942c0,1.036.647,1.683,3.108,2.2" transform="translate(19.409 0.324)" fill="#fff"/>
        <path id="Path_73" data-name="Path 73" d="M80.129,13.015A5.7,5.7,0,0,1,74.3,7.058,5.827,5.827,0,0,1,80.129,1.1a5.957,5.957,0,0,1,4.532,1.813l-.906.906a5.05,5.05,0,0,0-3.626-1.554,4.532,4.532,0,0,0-4.4,4.791,4.532,4.532,0,0,0,4.4,4.791,5.05,5.05,0,0,0,3.755-1.683l.906.777a5.957,5.957,0,0,1-4.662,2.072" transform="translate(21.914 0.323)" fill="#fff"/>
        <path id="Path_74" data-name="Path 74" d="M95.355,12.855H93.93L92.635,9.747H86.419l-1.424,3.108H83.7L89.009,1.2h1.165Zm-5.827-10.1-2.59,5.827h5.309Z" transform="translate(24.688 0.354)" fill="#fff"/>
        <path id="Path_75" data-name="Path 75" d="M94.8,1.2h1.295V11.56h6.475v1.295H94.8Z" transform="translate(27.963 0.354)" fill="#fff"/>
        <path id="Path_76" data-name="Path 76" d="M107.928,13A5.827,5.827,0,0,1,102.1,7.042a5.892,5.892,0,0,1,11.784,0A5.827,5.827,0,0,1,107.928,13m0-10.748A4.532,4.532,0,0,0,103.4,7.042a4.54,4.54,0,1,0,9.065,0,4.532,4.532,0,0,0-4.532-4.791" transform="translate(30.116 0.339)" fill="#fff"/>
        <path id="Path_77" data-name="Path 77" d="M26.414,20.727,24.731,18.4H23.047v2.331H22.4V14.9h2.46c1.295,0,2.072.647,2.072,1.683a1.683,1.683,0,0,1-1.554,1.683L27.191,20.6Zm-1.554-5.18H23.047v2.331H24.86c.906,0,1.554-.388,1.554-1.165s-.518-1.165-1.554-1.165" transform="translate(6.607 4.395)" fill="#fff"/>
        <path id="Path_78" data-name="Path 78" d="M33.573,15.418H29.947V17.49h3.237v.518H29.947V20.08h3.626v.647H29.3V14.9h4.273Z" transform="translate(8.642 4.395)" fill="#fff"/>
        <path id="Path_79" data-name="Path 79" d="M41.457,20.727h-.647l-.777-1.554H36.795l-.647,1.554H35.5L38.219,14.9h.518Zm-2.978-5.05-1.295,2.978H39.9Z" transform="translate(10.471 4.395)" fill="#fff"/>
        <path id="Path_80" data-name="Path 80" d="M43.2,14.9h.647v5.18h3.367v.647H43.2Z" transform="translate(12.742 4.395)" fill="#fff"/>
        <path id="Path_81" data-name="Path 81" d="M57.873,15.418H54.247V17.49h3.237v.518H54.247V20.08h3.626v.647H53.6V14.9h4.273Z" transform="translate(15.81 4.395)" fill="#fff"/>
        <path id="Path_82" data-name="Path 82" d="M62.331,17.524c1.295.259,1.942.777,1.942,1.683a1.785,1.785,0,0,1-1.942,1.683A3.367,3.367,0,0,1,60,19.985l.388-.518a2.719,2.719,0,0,0,1.942.777c.777,0,1.295-.388,1.295-1.036s-.259-.906-1.554-1.165-1.942-.777-1.942-1.683A1.683,1.683,0,0,1,62.072,14.8a3.108,3.108,0,0,1,2.072.777l-.388.518a2.59,2.59,0,0,0-1.683-.647c-.777,0-1.295.388-1.295.906s.259.906,1.554,1.165" transform="translate(17.698 4.361)" fill="#fff"/>
        <path id="Path_83" data-name="Path 83" d="M68.79,20.727h-.647V15.418H66.2V14.9h4.532v.518H68.79Z" transform="translate(19.527 4.395)" fill="#fff"/>
        <path id="Path_84" data-name="Path 84" d="M77.827,20.757H77.18L76.532,19.2H73.295l-.647,1.554H72L74.59,14.8h.647Zm-2.978-5.05-1.295,2.978h2.719Z" transform="translate(21.237 4.365)" fill="#fff"/>
        <path id="Path_85" data-name="Path 85" d="M81.39,20.727h-.647V15.418H78.8V14.9h4.532v.518H81.39Z" transform="translate(23.243 4.395)" fill="#fff"/>
        <path id="Path_86" data-name="Path 86" d="M89.773,15.418H86.147V17.49h3.237v.518H86.147V20.08h3.626v.647H85.5V14.9h4.273Z" transform="translate(25.219 4.395)" fill="#fff"/>
      </g>
    </g>
  </g>
</svg>
